<svg xmlns="http://www.w3.org/2000/svg" viewBox="0 0 800 450" role="img" aria-labelledby="title desc">
  <title id="title">夜勤明けに眠れない日の整え方</title>
  <desc id="desc">夜勤明けの看護師が遮光カーテンのある部屋で休息をとるイラスト</desc>
  <rect width="800" height="450" fill="#24343b"/>
  <circle cx="650" cy="88" r="58" fill="#fff0cf"/>
  <path d="M626 58c22 22 55 26 82 12-12 46-48 76-92 66 30-15 40-47 10-78z" fill="#24343b"/>
  <rect x="82" y="286" width="636" height="76" rx="34" fill="#fff"/>
  <rect x="120" y="234" width="278" height="76" rx="28" fill="#eaf6f3"/>
  <circle cx="230" cy="206" r="42" fill="#f5c7bf"/>
  <path d="M176 262c17-40 48-60 92-60 46 0 78 20 96 60z" fill="#1aa6a7"/>
  <rect x="452" y="174" width="160" height="76" rx="18" fill="#fff" opacity=".95"/>
  <circle cx="492" cy="212" r="20" fill="#fff0cf" stroke="#f2b84b" stroke-width="5"/>
  <path d="M492 200v13l10 7" stroke="#6f4e05" stroke-width="4" stroke-linecap="round"/>
  <path d="M542 202h40M542 226h28" stroke="#dbe9e8" stroke-width="12" stroke-linecap="round"/>
  <path d="M86 136h250" stroke="#1aa6a7" stroke-width="16" stroke-linecap="round" opacity=".55"/>
  <path d="M112 164h188" stroke="#1aa6a7" stroke-width="16" stroke-linecap="round" opacity=".35"/>
</svg>
