<svg xmlns="http://www.w3.org/2000/svg" viewBox="0 0 800 450" role="img" aria-labelledby="title desc">
  <title id="title">病院・クリニック・訪問看護の働き方比較</title>
  <desc id="desc">病院、クリニック、訪問看護を三つのカードで比較するイラスト</desc>
  <rect width="800" height="450" fill="#fff8eb"/>
  <rect x="74" y="88" width="190" height="270" rx="22" fill="#fff" stroke="#dbe9e8" stroke-width="4"/>
  <rect x="305" y="88" width="190" height="270" rx="22" fill="#fff" stroke="#dbe9e8" stroke-width="4"/>
  <rect x="536" y="88" width="190" height="270" rx="22" fill="#fff" stroke="#dbe9e8" stroke-width="4"/>
  <path d="M132 156h74M169 119v74" stroke="#ef7f72" stroke-width="12" stroke-linecap="round"/>
  <path d="M346 184h108M346 226h84M346 268h112" stroke="#dbe9e8" stroke-width="14" stroke-linecap="round"/>
  <path d="M580 206l51-44 51 44v80H580z" fill="#eaf6f3" stroke="#1aa6a7" stroke-width="6" stroke-linejoin="round"/>
  <rect x="622" y="242" width="18" height="44" rx="4" fill="#1aa6a7"/>
  <path d="M118 258h102M118 298h78" stroke="#dbe9e8" stroke-width="14" stroke-linecap="round"/>
  <circle cx="400" cy="146" r="24" fill="#f2b84b"/>
  <path d="M389 146h22M400 135v22" stroke="#fff" stroke-width="6" stroke-linecap="round"/>
  <path d="M272 224h28M500 224h28" stroke="#1aa6a7" stroke-width="9" stroke-linecap="round"/>
</svg>
