<svg xmlns="http://www.w3.org/2000/svg" viewBox="0 0 960 600" role="img" aria-labelledby="title desc">
  <title id="title">夜勤明けの疲れを整える看護師</title>
  <desc id="desc">夜勤明けの看護師が睡眠、食事、予定を整えるためのチェックリストを見ているイラスト</desc>
  <rect width="960" height="600" fill="#eaf6f3"/>
  <path d="M0 468c144-74 274 16 424-30 146-44 260-150 536-74v236H0z" fill="#fff"/>
  <circle cx="778" cy="112" r="80" fill="#fff0cf"/>
  <path d="M746 70c30 34 76 40 112 16-16 66-64 108-130 96 46-22 62-70 18-112z" fill="#eaf6f3"/>
  <rect x="572" y="142" width="250" height="310" rx="20" fill="#fff" stroke="#cfe2e0" stroke-width="4"/>
  <rect x="606" y="182" width="170" height="20" rx="10" fill="#1aa6a7"/>
  <circle cx="626" cy="248" r="12" fill="#f2b84b"/>
  <circle cx="626" cy="308" r="12" fill="#1aa6a7"/>
  <circle cx="626" cy="368" r="12" fill="#ef7f72"/>
  <path d="M656 248h106M656 308h76M656 368h122" stroke="#dbe9e8" stroke-width="16" stroke-linecap="round"/>
  <rect x="158" y="278" width="360" height="132" rx="26" fill="#ffffff" stroke="#cfe2e0" stroke-width="4"/>
  <rect x="206" y="226" width="180" height="84" rx="28" fill="#eaf6f3"/>
  <circle cx="286" cy="208" r="48" fill="#f5c7bf"/>
  <path d="M220 292c16-58 50-88 102-88 54 0 90 30 108 88z" fill="#1aa6a7"/>
  <path d="M202 340h250" stroke="#1aa6a7" stroke-width="12" stroke-linecap="round"/>
  <path d="M202 372h180" stroke="#dbe9e8" stroke-width="14" stroke-linecap="round"/>
  <rect x="382" y="142" width="112" height="92" rx="22" fill="#fff8eb" stroke="#f2b84b" stroke-width="5"/>
  <circle cx="438" cy="188" r="28" fill="#fff0cf" stroke="#f2b84b" stroke-width="6"/>
  <path d="M438 172v18l14 8" stroke="#6f4e05" stroke-width="5" stroke-linecap="round"/>
  <path d="M100 132h190M100 168h126" stroke="#dbe9e8" stroke-width="18" stroke-linecap="round"/>
  <path d="M104 498h752" stroke="#dbe9e8" stroke-width="8" stroke-linecap="round"/>
</svg>
