<svg xmlns="http://www.w3.org/2000/svg" viewBox="0 0 120 120">
  <rect width="120" height="120" rx="24" fill="#eaf6f3"/>
  <path d="M60 19c12 14 24 22 42 25-2 31-17 50-42 61-25-11-40-30-42-61 18-3 30-11 42-25z" fill="#fff" stroke="#dbe9e8" stroke-width="4" stroke-linejoin="round"/>
  <path d="M60 28c9 11 19 17 33 20-3 23-14 38-33 47z" fill="#f2b84b"/>
  <path d="M60 28c-9 11-19 17-33 20 3 23 14 38 33 47z" fill="#1aa6a7"/>
  <path d="M60 34v56" stroke="#fff" stroke-width="5" stroke-linecap="round"/>
</svg>
