<svg xmlns="http://www.w3.org/2000/svg" viewBox="0 0 120 120">
  <rect width="120" height="120" rx="24" fill="#eaf6f3"/>
  <path d="M60 17c11 14 24 23 43 27-2 30-17 50-43 61-26-11-41-31-43-61 19-4 32-13 43-27z" fill="#fff" stroke="#dbe9e8" stroke-width="4" stroke-linejoin="round"/>
  <path d="M60 27c9 11 19 17 34 21-3 23-14 38-34 47z" fill="#f2b84b"/>
  <path d="M60 27c-9 11-19 17-34 21 3 23 14 38 34 47z" fill="#1aa6a7"/>
  <path d="M60 33v58" stroke="#fff" stroke-width="5" stroke-linecap="round"/>
  <path d="M40 52c4-6 10-10 20-10s16 4 20 10" fill="none" stroke="#fff" stroke-width="5" stroke-linecap="round"/>
</svg>
