<svg xmlns="http://www.w3.org/2000/svg" viewBox="0 0 180 180" role="img" aria-labelledby="title desc">
  <title id="title">Book icon</title>
  <desc id="desc">A simple open book icon.</desc>
  <rect width="180" height="180" rx="28" fill="#f7fbfb"/>
  <path d="M88 56c-14-10-30-15-48-15-5 0-9 4-9 9v78c0 5 4 9 9 9 18 0 34 5 48 15V56z" fill="#ffffff" stroke="#08777b" stroke-width="6" stroke-linejoin="round"/>
  <path d="M92 56c14-10 30-15 48-15 5 0 9 4 9 9v78c0 5-4 9-9 9-18 0-34 5-48 15V56z" fill="#ffffff" stroke="#08777b" stroke-width="6" stroke-linejoin="round"/>
  <path d="M90 57v94" stroke="#1aa6a7" stroke-width="6" stroke-linecap="round"/>
  <path d="M50 67c10 1 19 4 28 9" stroke="#dbe9e8" stroke-width="6" stroke-linecap="round"/>
  <path d="M50 88c10 1 19 4 28 9" stroke="#dbe9e8" stroke-width="6" stroke-linecap="round"/>
  <path d="M50 109c10 1 19 4 28 9" stroke="#dbe9e8" stroke-width="6" stroke-linecap="round"/>
  <path d="M130 67c-10 1-19 4-28 9" stroke="#dbe9e8" stroke-width="6" stroke-linecap="round"/>
  <path d="M130 88c-10 1-19 4-28 9" stroke="#dbe9e8" stroke-width="6" stroke-linecap="round"/>
  <path d="M130 109c-10 1-19 4-28 9" stroke="#dbe9e8" stroke-width="6" stroke-linecap="round"/>
  <path d="M118 41v38l11-8 11 8V42" fill="#f2b84b" stroke="#ef7f72" stroke-width="5" stroke-linejoin="round"/>
</svg>
