<svg xmlns="http://www.w3.org/2000/svg" viewBox="0 0 1200 750" role="img" aria-labelledby="title desc">
  <title id="title">整えられた通勤バッグとナースグッズ</title>
  <desc id="desc">看護師のバッグ、ペン、時計、メモ、ハンドクリームが整然と置かれているイラスト</desc>
  <defs>
    <linearGradient id="bg" x1="0" x2="1" y1="0" y2="1">
      <stop offset="0" stop-color="#f7fbfb"/>
      <stop offset="0.58" stop-color="#e6f5f2"/>
      <stop offset="1" stop-color="#fff4df"/>
    </linearGradient>
    <linearGradient id="bag" x1="0" x2="1" y1="0" y2="1">
      <stop offset="0" stop-color="#1aa6a7"/>
      <stop offset="1" stop-color="#08777b"/>
    </linearGradient>
    <filter id="shadow" x="-20%" y="-20%" width="140%" height="150%">
      <feDropShadow dx="0" dy="20" stdDeviation="22" flood-color="#09585c" flood-opacity="0.18"/>
    </filter>
  </defs>
  <rect width="1200" height="750" fill="url(#bg)"/>
  <circle cx="1010" cy="128" r="96" fill="#ef7f72" opacity="0.16"/>
  <circle cx="172" cy="610" r="126" fill="#1aa6a7" opacity="0.12"/>
  <g fill="none" stroke="#dbe9e8" stroke-width="3" opacity="0.8">
    <path d="M92 178h1016"/>
    <path d="M92 564h1016"/>
    <path d="M238 90v580"/>
    <path d="M960 90v580"/>
  </g>
  <g filter="url(#shadow)">
    <rect x="310" y="266" width="430" height="278" rx="34" fill="url(#bag)"/>
    <path d="M416 280v-34c0-58 48-104 108-104s108 46 108 104v34" fill="none" stroke="#08777b" stroke-width="34" stroke-linecap="round"/>
    <path d="M416 280v-34c0-58 48-104 108-104s108 46 108 104v34" fill="none" stroke="#ffffff" stroke-width="12" stroke-linecap="round" opacity="0.55"/>
    <rect x="348" y="318" width="354" height="70" rx="20" fill="#ffffff" opacity="0.17"/>
    <path d="M388 458h274" stroke="#ffffff" stroke-width="12" stroke-linecap="round" opacity="0.42"/>
    <path d="M388 492h188" stroke="#ffffff" stroke-width="12" stroke-linecap="round" opacity="0.32"/>
  </g>
  <g filter="url(#shadow)">
    <rect x="765" y="244" width="108" height="310" rx="28" fill="#ffffff"/>
    <rect x="802" y="286" width="34" height="180" rx="17" fill="#f2b84b"/>
    <circle cx="819" cy="505" r="25" fill="#1aa6a7"/>
    <path d="M808 505h22M819 494v22" stroke="#ffffff" stroke-width="6" stroke-linecap="round"/>
  </g>
  <g filter="url(#shadow)">
    <rect x="148" y="310" width="126" height="174" rx="22" fill="#ffffff"/>
    <path d="M178 354h66M178 390h66M178 426h42" stroke="#66797d" stroke-width="9" stroke-linecap="round" opacity="0.72"/>
    <path d="M238 454l44 44" stroke="#ef7f72" stroke-width="13" stroke-linecap="round"/>
  </g>
  <g filter="url(#shadow)">
    <circle cx="928" cy="422" r="76" fill="#ffffff"/>
    <circle cx="928" cy="422" r="56" fill="#f7fbfb" stroke="#1aa6a7" stroke-width="9"/>
    <path d="M928 388v38l30 18" stroke="#233238" stroke-width="9" stroke-linecap="round" stroke-linejoin="round"/>
  </g>
  <g filter="url(#shadow)">
    <rect x="774" y="584" width="250" height="72" rx="22" fill="#ffffff"/>
    <rect x="806" y="606" width="112" height="28" rx="14" fill="#ef7f72" opacity="0.9"/>
    <path d="M944 620h42" stroke="#1aa6a7" stroke-width="10" stroke-linecap="round"/>
  </g>
  <g fill="#233238">
    <text x="92" y="106" font-family="Hiragino Kaku Gothic ProN, Yu Gothic, sans-serif" font-size="38" font-weight="800">Minimal Nursing Kit</text>
    <text x="92" y="154" font-family="Hiragino Kaku Gothic ProN, Yu Gothic, sans-serif" font-size="24" fill="#66797d">必要なものを選び、出勤前の迷いを減らす。</text>
  </g>
</svg>
